<svg version="1.1" id="Calque_1" xmlns="http://www.w3.org/2000/svg" x="0" y="0" viewBox="0 0 443 443" style="enable-background:new 0 0 443 443" xml:space="preserve"><style>.st0{fill:#fff}</style><path class="st0" d="M321.8 38h-83.4V0H125.2v38H41.8v60h280V38zm-166.6-8h53.2v8h-53.2v-8zm139.9 184.3 5.7-86.3h-238l19 290H196c-14.9-21.1-23.6-46.7-23.6-74.4 0-69.2 54.4-125.8 122.7-129.3z"/><path class="st0" d="M301.8 244.1c-54.8 0-99.4 44.6-99.4 99.4S247 443 301.8 443s99.4-44.6 99.4-99.4-44.6-99.5-99.4-99.5zM356 376.5l-21.2 21.2-33-33-33 33-21.2-21.2 33-33-33-33 21.2-21.2 33 33 33-33 21.2 21.2-33 33 33 33z"/></svg>