<svg width="110" height="23" fill="none" xmlns="http://www.w3.org/2000/svg"><path d="M8.07 22.667c4.363 0 7.846-2.739 7.846-7.637 0-4.929-3.483-7.637-7.846-7.637-4.363 0-7.846 2.708-7.846 7.637 0 4.898 3.483 7.637 7.846 7.637Zm0-3.104c-1.986 0-3.32-1.551-3.32-4.533 0-3.012 1.334-4.533 3.32-4.533 1.986 0 3.32 1.52 3.32 4.533 0 2.982-1.334 4.533-3.32 4.533ZM24.382 22.667c2.376 0 4.265-.974 5.241-3.104l.391 2.8h3.614V0H29.33v9.493c-.846-1.34-2.474-2.1-4.362-2.1-4.135 0-7.098 2.952-7.098 7.85 0 4.199 2.474 7.424 6.512 7.424Zm1.66-3.347c-2.637 0-3.744-1.947-3.744-4.381 0-2.951 1.498-4.473 3.549-4.473 1.725 0 3.483 1.43 3.483 3.651v1.43c0 2.373-1.53 3.773-3.288 3.773Zm15.204 3.347c2.084 0 3.354-.578 4.265-2.16l.326 1.855h3.614V12.9c0-3.347-1.889-5.507-6.577-5.507-1.823 0-3.94.426-5.274 1.187l.26 3.408c1.27-.761 3.093-1.126 4.363-1.126 2.051 0 2.93.912 2.93 2.342v.335c-.39-.03-.879-.06-1.497-.06-4.103 0-7.13 1.734-7.13 4.867 0 2.708 1.888 4.32 4.72 4.32Zm1.563-2.89c-1.172 0-1.953-.7-1.953-1.704 0-1.309 1.204-2.13 3.027-2.13.424 0 .88.03 1.27.06v.822c0 1.704-1.074 2.951-2.344 2.951Zm13.576 2.89c3.647 0 6.577-1.826 6.577-4.808 0-2.19-1.172-3.59-4.233-4.259-1.074-.243-1.758-.73-1.758-1.552 0-.912.945-1.43 2.247-1.43 1.172 0 2.214.244 3.19.73l.26-3.285c-.91-.365-2.148-.64-3.938-.64-3.191 0-6.121 1.644-6.121 4.838 0 2.282 1.204 3.62 3.972 4.29 1.334.335 2.05.76 2.05 1.552 0 .821-.846 1.339-2.246 1.339a9.435 9.435 0 0 1-3.776-.761l-.326 3.195c1.172.517 2.735.79 4.102.79Zm15.758 0c2.41 0 4.2-.426 5.437-1.065l-.293-3.043c-1.172.578-2.572.913-4.297.913-2.345 0-3.81-1.034-4.038-2.982h9.54a9.768 9.768 0 0 0 .162-1.703c0-4.017-1.953-7.394-6.446-7.394-4.2 0-7.358 3.104-7.358 8.093 0 4.808 2.996 7.18 7.293 7.18Zm2.605-9.067h-5.763c.26-2.008 1.465-3.103 3.028-3.103 1.986 0 2.735 1.4 2.735 3.103Zm15.367 8.762 5.827-14.664H91.06L87.77 18.894 84.58 7.698h-5.046l5.697 14.664h4.884Zm11.46.305c2.083 0 3.353-.578 4.265-2.16l.325 1.855h3.614V12.9c0-3.347-1.888-5.507-6.576-5.507-1.824 0-3.94.426-5.275 1.187l.26 3.408c1.27-.761 3.094-1.126 4.364-1.126 2.051 0 2.93.912 2.93 2.342v.335c-.391-.03-.879-.06-1.498-.06-4.102 0-7.13 1.734-7.13 4.867 0 2.708 1.888 4.32 4.721 4.32Zm1.563-2.89c-1.173 0-1.954-.7-1.954-1.704 0-1.309 1.205-2.13 3.028-2.13.423 0 .879.03 1.27.06v.822c0 1.704-1.075 2.951-2.344 2.951Z" fill="#fff"/></svg>